<svg xmlns="http://www.w3.org/2000/svg" xmlns:xlink="http://www.w3.org/1999/xlink" contentStyleType="text/css" data-diagram-type="ACTIVITY" height="1247px" preserveAspectRatio="none" style="width:783px;height:1247px;background:#FFFFFF;" version="1.1" viewBox="0 0 783 1247" width="783px" zoomAndPan="magnify"><defs/><g><text fill="#888888" font-family="sans-serif" font-size="10" lengthAdjust="spacing" textLength="80.8643" x="690.0308" y="19.668">Group Members:</text><text fill="#888888" font-family="sans-serif" font-size="10" lengthAdjust="spacing" textLength="63.291" x="707.604" y="31.4453">1. Ali Hassan</text><text fill="#888888" font-family="sans-serif" font-size="10" lengthAdjust="spacing" textLength="71.1621" x="699.7329" y="43.2227">2. Abdul Raziq</text><text fill="#888888" font-family="sans-serif" font-size="10" lengthAdjust="spacing" textLength="142.8125" x="628.0825" y="55">3. Muhammad Areeb Hussain</text><text fill="#888888" font-family="sans-serif" font-size="10" lengthAdjust="spacing" textLength="107.7148" x="663.1802" y="66.7773">4. Mahmoud Gohneim</text><rect fill="none" height="21.1992" style="stroke:none;stroke-width:1;" width="750.895" x="15" y="72.1836"/><ellipse cx="221.7388" cy="108.3828" fill="#222222" rx="10" ry="10" style="stroke:#222222;stroke-width:1;"/><rect fill="#F1F1F1" height="34.1328" rx="12.5" ry="12.5" style="stroke:#181818;stroke-width:0.5;" width="160.5313" x="141.4731" y="138.3828"/><text fill="#000000" font-family="sans-serif" font-size="12" lengthAdjust="spacing" textLength="140.5313" x="151.4731" y="159.9844">Go to baggage check-in</text><rect fill="#F1F1F1" height="34.1328" rx="12.5" ry="12.5" style="stroke:#181818;stroke-width:0.5;" width="171.6406" x="135.9185" y="192.5156"/><text fill="#000000" font-family="sans-serif" font-size="12" lengthAdjust="spacing" textLength="151.6406" x="145.9185" y="214.1172">Place suitcase on carousel</text><rect fill="#F1F1F1" height="34.1328" rx="12.5" ry="12.5" style="stroke:#181818;stroke-width:0.5;" width="112.5078" x="165.4849" y="349.2588"/><text fill="#000000" font-family="sans-serif" font-size="12" lengthAdjust="spacing" textLength="92.5078" x="175.4849" y="370.8604">Repack suitcase</text><rect fill="#F1F1F1" height="34.1328" rx="12.5" ry="12.5" style="stroke:#181818;stroke-width:0.5;" width="135.9043" x="153.7866" y="403.3916"/><text fill="#000000" font-family="sans-serif" font-size="12" lengthAdjust="spacing" textLength="115.9043" x="163.7866" y="424.9932">Place suitcase again</text><polygon fill="#F1F1F1" points="175.1929,560.1348,268.2847,560.1348,280.2847,572.1348,268.2847,584.1348,175.1929,584.1348,163.1929,572.1348,175.1929,560.1348" style="stroke:#181818;stroke-width:0.5;"/><text fill="#000000" font-family="sans-serif" font-size="11" lengthAdjust="spacing" textLength="93.0918" x="175.1929" y="576.292">Pay extra charge?</text><text fill="#000000" font-family="sans-serif" font-size="11" lengthAdjust="spacing" textLength="17.4829" x="145.71" y="569.8145">yes</text><text fill="#000000" font-family="sans-serif" font-size="11" lengthAdjust="spacing" textLength="13.5835" x="280.2847" y="569.8145">no</text><rect fill="#F1F1F1" height="34.1328" rx="12.5" ry="12.5" style="stroke:#181818;stroke-width:0.5;" width="157.7539" x="58" y="604.1348"/><text fill="#000000" font-family="sans-serif" font-size="12" lengthAdjust="spacing" textLength="137.7539" x="68" y="625.7363">Pay excess baggage fee</text><rect fill="#F1F1F1" height="34.1328" rx="12.5" ry="12.5" style="stroke:#181818;stroke-width:0.5;" width="97.0625" x="258.0693" y="604.1348"/><text fill="#000000" font-family="sans-serif" font-size="12" lengthAdjust="spacing" textLength="77.0625" x="268.0693" y="625.7363">Repack again</text><rect fill="#F1F1F1" height="34.1328" rx="12.5" ry="12.5" style="stroke:#181818;stroke-width:0.5;" width="135.9043" x="238.6484" y="658.2676"/><text fill="#000000" font-family="sans-serif" font-size="12" lengthAdjust="spacing" textLength="115.9043" x="248.6484" y="679.8691">Place suitcase again</text><polygon fill="#F1F1F1" points="221.7388,756.5332,233.7388,768.5332,221.7388,780.5332,209.7388,768.5332,221.7388,756.5332" style="stroke:#181818;stroke-width:0.5;"/><polygon fill="#F1F1F1" points="182.1001,511.6572,261.3774,511.6572,273.3774,523.6572,261.3774,535.6572,182.1001,535.6572,170.1001,523.6572,182.1001,511.6572" style="stroke:#181818;stroke-width:0.5;"/><text fill="#000000" font-family="sans-serif" font-size="11" lengthAdjust="spacing" textLength="17.4829" x="225.7388" y="546.292">yes</text><text fill="#000000" font-family="sans-serif" font-size="11" lengthAdjust="spacing" textLength="79.2773" x="182.1001" y="527.8145">Still too heavy?</text><polygon fill="#F1F1F1" points="221.7388,800.5332,233.7388,812.5332,221.7388,824.5332,209.7388,812.5332,221.7388,800.5332" style="stroke:#181818;stroke-width:0.5;"/><polygon fill="#F1F1F1" points="192.2085,300.7813,251.269,300.7813,263.269,312.7813,251.269,324.7813,192.2085,324.7813,180.2085,312.7813,192.2085,300.7813" style="stroke:#181818;stroke-width:0.5;"/><text fill="#000000" font-family="sans-serif" font-size="11" lengthAdjust="spacing" textLength="17.4829" x="225.7388" y="335.416">yes</text><text fill="#000000" font-family="sans-serif" font-size="11" lengthAdjust="spacing" textLength="59.0605" x="192.2085" y="316.9385">Too heavy?</text><polygon fill="#F1F1F1" points="221.7388,844.5332,233.7388,856.5332,221.7388,868.5332,209.7388,856.5332,221.7388,844.5332" style="stroke:#181818;stroke-width:0.5;"/><rect fill="#F1F1F1" height="34.1328" rx="12.5" ry="12.5" style="stroke:#181818;stroke-width:0.5;" width="168.207" x="137.6353" y="888.5332"/><text fill="#000000" font-family="sans-serif" font-size="12" lengthAdjust="spacing" textLength="148.207" x="147.6353" y="910.1348">Proceed to security check</text><rect fill="#F1F1F1" height="34.1328" rx="12.5" ry="12.5" style="stroke:#181818;stroke-width:0.5;" width="148.502" x="147.4878" y="942.666"/><text fill="#000000" font-family="sans-serif" font-size="12" lengthAdjust="spacing" textLength="128.502" x="157.4878" y="964.2676">Hand in hand luggage</text><rect fill="#F1F1F1" height="34.1328" rx="12.5" ry="12.5" style="stroke:#181818;stroke-width:0.5;" width="164.8438" x="139.3169" y="1050.9316"/><text fill="#000000" font-family="sans-serif" font-size="12" lengthAdjust="spacing" textLength="144.8438" x="149.3169" y="1072.5332">Go through security gate</text><rect fill="#F1F1F1" height="34.1328" rx="12.5" ry="12.5" style="stroke:#181818;stroke-width:0.5;" width="143.2754" x="150.1011" y="1105.0645"/><text fill="#000000" font-family="sans-serif" font-size="12" lengthAdjust="spacing" textLength="123.2754" x="160.1011" y="1126.666">Collect hand luggage</text><rect fill="#F1F1F1" height="34.1328" rx="12.5" ry="12.5" style="stroke:#181818;stroke-width:0.5;" width="130.584" x="156.4468" y="1159.1973"/><text fill="#000000" font-family="sans-serif" font-size="12" lengthAdjust="spacing" textLength="110.584" x="166.4468" y="1180.7988">Leave security area</text><ellipse cx="221.7388" cy="1224.3301" fill="none" rx="11" ry="11" style="stroke:#222222;stroke-width:1;"/><ellipse cx="221.7388" cy="1224.3301" fill="#222222" rx="6" ry="6" style="stroke:#222222;stroke-width:1;"/><line style="stroke:#000000;stroke-width:1.5;" x1="15" x2="15" y1="72.1836" y2="1235.3301"/><rect fill="#F1F1F1" height="34.1328" rx="12.5" ry="12.5" style="stroke:#181818;stroke-width:0.5;" width="106.2441" x="402.2773" y="246.6484"/><text fill="#000000" font-family="sans-serif" font-size="12" lengthAdjust="spacing" textLength="86.2441" x="412.2773" y="268.25">Weigh suitcase</text><rect fill="#F1F1F1" height="34.1328" rx="12.5" ry="12.5" style="stroke:#181818;stroke-width:0.5;" width="141.6934" x="384.5527" y="457.5244"/><text fill="#000000" font-family="sans-serif" font-size="12" lengthAdjust="spacing" textLength="121.6934" x="394.5527" y="479.126">Weigh suitcase again</text><rect fill="#F1F1F1" height="34.1328" rx="12.5" ry="12.5" style="stroke:#181818;stroke-width:0.5;" width="141.6934" x="469.4146" y="712.4004"/><text fill="#000000" font-family="sans-serif" font-size="12" lengthAdjust="spacing" textLength="121.6934" x="479.4146" y="734.002">Weigh suitcase again</text><line style="stroke:#000000;stroke-width:1.5;" x1="378.5527" x2="378.5527" y1="72.1836" y2="1235.3301"/><rect fill="#F1F1F1" height="34.1328" rx="12.5" ry="12.5" style="stroke:#181818;stroke-width:0.5;" width="138.9395" x="621.1079" y="996.7988"/><text fill="#000000" font-family="sans-serif" font-size="12" lengthAdjust="spacing" textLength="118.9395" x="631.1079" y="1018.4004">Check hand luggage</text><line style="stroke:#000000;stroke-width:1.5;" x1="615.1079" x2="615.1079" y1="72.1836" y2="1235.3301"/><line style="stroke:#000000;stroke-width:1.5;" x1="764.0474" x2="764.0474" y1="72.1836" y2="1235.3301"/><line style="stroke:#181818;stroke-width:1;" x1="221.7388" x2="221.7388" y1="118.3828" y2="138.3828"/><polygon fill="#181818" points="217.7388,128.3828,221.7388,138.3828,225.7388,128.3828,221.7388,132.3828" style="stroke:#181818;stroke-width:1;"/><line style="stroke:#181818;stroke-width:1;" x1="221.7388" x2="221.7388" y1="172.5156" y2="192.5156"/><polygon fill="#181818" points="217.7388,182.5156,221.7388,192.5156,225.7388,182.5156,221.7388,186.5156" style="stroke:#181818;stroke-width:1;"/><line style="stroke:#181818;stroke-width:1;" x1="221.7388" x2="221.7388" y1="383.3916" y2="403.3916"/><polygon fill="#181818" points="217.7388,393.3916,221.7388,403.3916,225.7388,393.3916,221.7388,397.3916" style="stroke:#181818;stroke-width:1;"/><line style="stroke:#181818;stroke-width:1;" x1="306.6006" x2="306.6006" y1="638.2676" y2="658.2676"/><polygon fill="#181818" points="302.6006,648.2676,306.6006,658.2676,310.6006,648.2676,306.6006,652.2676" style="stroke:#181818;stroke-width:1;"/><line style="stroke:#181818;stroke-width:1;" x1="163.1929" x2="136.877" y1="572.1348" y2="572.1348"/><line style="stroke:#181818;stroke-width:1;" x1="136.877" x2="136.877" y1="572.1348" y2="604.1348"/><polygon fill="#181818" points="132.877,594.1348,136.877,604.1348,140.877,594.1348,136.877,598.1348" style="stroke:#181818;stroke-width:1;"/><line style="stroke:#181818;stroke-width:1;" x1="280.2847" x2="306.6006" y1="572.1348" y2="572.1348"/><line style="stroke:#181818;stroke-width:1;" x1="306.6006" x2="306.6006" y1="572.1348" y2="604.1348"/><polygon fill="#181818" points="302.6006,594.1348,306.6006,604.1348,310.6006,594.1348,306.6006,598.1348" style="stroke:#181818;stroke-width:1;"/><line style="stroke:#181818;stroke-width:1;" x1="136.877" x2="136.877" y1="638.2676" y2="768.5332"/><line style="stroke:#181818;stroke-width:1;" x1="136.877" x2="209.7388" y1="768.5332" y2="768.5332"/><polygon fill="#181818" points="199.7388,764.5332,209.7388,768.5332,199.7388,772.5332,203.7388,768.5332" style="stroke:#181818;stroke-width:1;"/><line style="stroke:#181818;stroke-width:1;" x1="221.7388" x2="221.7388" y1="535.6572" y2="560.1348"/><polygon fill="#181818" points="217.7388,550.1348,221.7388,560.1348,225.7388,550.1348,221.7388,554.1348" style="stroke:#181818;stroke-width:1;"/><line style="stroke:#181818;stroke-width:1;" x1="170.1001" x2="44" y1="523.6572" y2="523.6572"/><polygon fill="#181818" points="40,660.334,44,670.334,48,660.334,44,664.334" style="stroke:#181818;stroke-width:1;"/><line style="stroke:#181818;stroke-width:1;" x1="44" x2="44" y1="523.6572" y2="812.5332"/><line style="stroke:#181818;stroke-width:1;" x1="44" x2="209.7388" y1="812.5332" y2="812.5332"/><polygon fill="#181818" points="199.7388,808.5332,209.7388,812.5332,199.7388,816.5332,203.7388,812.5332" style="stroke:#181818;stroke-width:1;"/><line style="stroke:#181818;stroke-width:1;" x1="221.7388" x2="221.7388" y1="780.5332" y2="800.5332"/><polygon fill="#181818" points="217.7388,790.5332,221.7388,800.5332,225.7388,790.5332,221.7388,794.5332" style="stroke:#181818;stroke-width:1;"/><line style="stroke:#181818;stroke-width:1;" x1="221.7388" x2="221.7388" y1="324.7813" y2="349.2588"/><polygon fill="#181818" points="217.7388,339.2588,221.7388,349.2588,225.7388,339.2588,221.7388,343.2588" style="stroke:#181818;stroke-width:1;"/><line style="stroke:#181818;stroke-width:1;" x1="180.2085" x2="34" y1="312.7813" y2="312.7813"/><polygon fill="#181818" points="30,571.6348,34,581.6348,38,571.6348,34,575.6348" style="stroke:#181818;stroke-width:1;"/><line style="stroke:#181818;stroke-width:1;" x1="34" x2="34" y1="312.7813" y2="856.5332"/><line style="stroke:#181818;stroke-width:1;" x1="34" x2="209.7388" y1="856.5332" y2="856.5332"/><polygon fill="#181818" points="199.7388,852.5332,209.7388,856.5332,199.7388,860.5332,203.7388,856.5332" style="stroke:#181818;stroke-width:1;"/><line style="stroke:#181818;stroke-width:1;" x1="221.7388" x2="221.7388" y1="824.5332" y2="844.5332"/><polygon fill="#181818" points="217.7388,834.5332,221.7388,844.5332,225.7388,834.5332,221.7388,838.5332" style="stroke:#181818;stroke-width:1;"/><line style="stroke:#181818;stroke-width:1;" x1="221.7388" x2="221.7388" y1="868.5332" y2="888.5332"/><polygon fill="#181818" points="217.7388,878.5332,221.7388,888.5332,225.7388,878.5332,221.7388,882.5332" style="stroke:#181818;stroke-width:1;"/><line style="stroke:#181818;stroke-width:1;" x1="221.7388" x2="221.7388" y1="922.666" y2="942.666"/><polygon fill="#181818" points="217.7388,932.666,221.7388,942.666,225.7388,932.666,221.7388,936.666" style="stroke:#181818;stroke-width:1;"/><line style="stroke:#181818;stroke-width:1;" x1="221.7388" x2="221.7388" y1="1085.0645" y2="1105.0645"/><polygon fill="#181818" points="217.7388,1095.0645,221.7388,1105.0645,225.7388,1095.0645,221.7388,1099.0645" style="stroke:#181818;stroke-width:1;"/><line style="stroke:#181818;stroke-width:1;" x1="221.7388" x2="221.7388" y1="1139.1973" y2="1159.1973"/><polygon fill="#181818" points="217.7388,1149.1973,221.7388,1159.1973,225.7388,1149.1973,221.7388,1153.1973" style="stroke:#181818;stroke-width:1;"/><line style="stroke:#181818;stroke-width:1;" x1="221.7388" x2="221.7388" y1="1193.3301" y2="1213.3301"/><polygon fill="#181818" points="217.7388,1203.3301,221.7388,1213.3301,225.7388,1203.3301,221.7388,1207.3301" style="stroke:#181818;stroke-width:1;"/><line style="stroke:#181818;stroke-width:1;" x1="221.7388" x2="221.7388" y1="226.6484" y2="231.6484"/><line style="stroke:#181818;stroke-width:1;" x1="221.7388" x2="455.3994" y1="231.6484" y2="231.6484"/><line style="stroke:#181818;stroke-width:1;" x1="455.3994" x2="455.3994" y1="231.6484" y2="246.6484"/><polygon fill="#181818" points="451.3994,236.6484,455.3994,246.6484,459.3994,236.6484,455.3994,240.6484" style="stroke:#181818;stroke-width:1;"/><line style="stroke:#181818;stroke-width:1;" x1="221.7388" x2="221.7388" y1="437.5244" y2="442.5244"/><line style="stroke:#181818;stroke-width:1;" x1="221.7388" x2="455.3994" y1="442.5244" y2="442.5244"/><line style="stroke:#181818;stroke-width:1;" x1="455.3994" x2="455.3994" y1="442.5244" y2="457.5244"/><polygon fill="#181818" points="451.3994,447.5244,455.3994,457.5244,459.3994,447.5244,455.3994,451.5244" style="stroke:#181818;stroke-width:1;"/><line style="stroke:#181818;stroke-width:1;" x1="306.6006" x2="306.6006" y1="692.4004" y2="697.4004"/><line style="stroke:#181818;stroke-width:1;" x1="306.6006" x2="540.2612" y1="697.4004" y2="697.4004"/><line style="stroke:#181818;stroke-width:1;" x1="540.2612" x2="540.2612" y1="697.4004" y2="712.4004"/><polygon fill="#181818" points="536.2612,702.4004,540.2612,712.4004,544.2612,702.4004,540.2612,706.4004" style="stroke:#181818;stroke-width:1;"/><line style="stroke:#181818;stroke-width:1;" x1="540.2612" x2="540.2612" y1="746.5332" y2="768.5332"/><line style="stroke:#181818;stroke-width:1;" x1="540.2612" x2="233.7388" y1="768.5332" y2="768.5332"/><polygon fill="#181818" points="243.7388,764.5332,233.7388,768.5332,243.7388,772.5332,239.7388,768.5332" style="stroke:#181818;stroke-width:1;"/><line style="stroke:#181818;stroke-width:1;" x1="455.3994" x2="455.3994" y1="491.6572" y2="496.6572"/><line style="stroke:#181818;stroke-width:1;" x1="455.3994" x2="221.7388" y1="496.6572" y2="496.6572"/><line style="stroke:#181818;stroke-width:1;" x1="221.7388" x2="221.7388" y1="496.6572" y2="511.6572"/><polygon fill="#181818" points="217.7388,501.6572,221.7388,511.6572,225.7388,501.6572,221.7388,505.6572" style="stroke:#181818;stroke-width:1;"/><line style="stroke:#181818;stroke-width:1;" x1="455.3994" x2="455.3994" y1="280.7813" y2="285.7813"/><line style="stroke:#181818;stroke-width:1;" x1="455.3994" x2="221.7388" y1="285.7813" y2="285.7813"/><line style="stroke:#181818;stroke-width:1;" x1="221.7388" x2="221.7388" y1="285.7813" y2="300.7813"/><polygon fill="#181818" points="217.7388,290.7813,221.7388,300.7813,225.7388,290.7813,221.7388,294.7813" style="stroke:#181818;stroke-width:1;"/><line style="stroke:#181818;stroke-width:1;" x1="221.7388" x2="221.7388" y1="976.7988" y2="981.7988"/><line style="stroke:#181818;stroke-width:1;" x1="221.7388" x2="690.5776" y1="981.7988" y2="981.7988"/><line style="stroke:#181818;stroke-width:1;" x1="690.5776" x2="690.5776" y1="981.7988" y2="996.7988"/><polygon fill="#181818" points="686.5776,986.7988,690.5776,996.7988,694.5776,986.7988,690.5776,990.7988" style="stroke:#181818;stroke-width:1;"/><line style="stroke:#181818;stroke-width:1;" x1="690.5776" x2="690.5776" y1="1030.9316" y2="1035.9316"/><line style="stroke:#181818;stroke-width:1;" x1="690.5776" x2="221.7388" y1="1035.9316" y2="1035.9316"/><line style="stroke:#181818;stroke-width:1;" x1="221.7388" x2="221.7388" y1="1035.9316" y2="1050.9316"/><polygon fill="#181818" points="217.7388,1040.9316,221.7388,1050.9316,225.7388,1040.9316,221.7388,1044.9316" style="stroke:#181818;stroke-width:1;"/><text fill="#000000" font-family="sans-serif" font-size="18" lengthAdjust="spacing" textLength="70.6289" x="161.4619" y="89.5859">Traveler</text><text fill="#000000" font-family="sans-serif" font-size="18" lengthAdjust="spacing" textLength="119.2324" x="437.2141" y="89.5859">Baggage Staff</text><text fill="#000000" font-family="sans-serif" font-size="18" lengthAdjust="spacing" textLength="114.1172" x="632.519" y="89.5859">Security Staff</text><!--SRC=[TPC_Ry8m4CLtVueROIXI_qnXg2W334L2WDJvObzY2yUcjeEQAX- -TY2GGkl1LkBVvRtpSzgTmoDfSYtp0LrWJ18AScpXR7s05LKvEP-nnmdCj88bUe-6FSMdNDGQDlYjFjdp15QrnAf20JD7bCEoZfmox2NkeAniBM1XfI5LCJBYBC6oXOLW8SUon9A0I-Bx1sMcB5jhv0I-Le6Z9x06E4P3dlIKiVRjNB0DM1Gjopv8bV929-BQbIfWjBCMekQnUHr3a6HWr90VCu1iGmVa-q5fV7UZZIKcIt7dLZUolvM7xDK1GFAm3KhhsEq_JaxG6XkWh-0mdWMwakwfvA-3E7b_ERc2Eki0fAEBaR4N-DpWsLZ_XVywJEE-owxcxquxJIDKmVhrD0yJoDRESYAHelR4QwT2Syew1hr48q0Pa6dLTQUS0jpsO9_nF1NSOGELT9Tal2F9PLzSOeXODhTQ4m-trTbxJ8AkD3h2QVmDxE47]--></g></svg>