<svg xmlns="http://www.w3.org/2000/svg" xmlns:xlink="http://www.w3.org/1999/xlink" contentStyleType="text/css" data-diagram-type="STATE" height="636px" preserveAspectRatio="none" style="width:461px;height:636px;background:#FFFFFF;" version="1.1" viewBox="0 0 461 636" width="461px" zoomAndPan="magnify"><title>Traffic Light Control</title><defs/><g><text fill="#888888" font-family="sans-serif" font-size="10" lengthAdjust="spacing" textLength="80.8643" x="367.0142" y="9.668">Group Members:</text><text fill="#888888" font-family="sans-serif" font-size="10" lengthAdjust="spacing" textLength="63.291" x="384.5874" y="21.4453">1. Ali Hassan</text><text fill="#888888" font-family="sans-serif" font-size="10" lengthAdjust="spacing" textLength="71.1621" x="376.7163" y="33.2227">2. Abdul Raziq</text><text fill="#888888" font-family="sans-serif" font-size="10" lengthAdjust="spacing" textLength="142.8125" x="305.0659" y="45">3. Muhammad Areeb Hussain</text><text fill="#888888" font-family="sans-serif" font-size="10" lengthAdjust="spacing" textLength="107.7148" x="340.1636" y="56.7773">4. Mahmoud Gohneim</text><text fill="#000000" font-family="sans-serif" font-size="14" font-weight="bold" lengthAdjust="spacing" textLength="147.5332" x="150.1726" y="83.4219">Traffic Light Control</text><ellipse cx="293.93" cy="113.375" fill="#222222" rx="10" ry="10" style="stroke:#222222;stroke-width:1;"/><g id="Red"><rect fill="#F1F1F1" height="50" rx="12.5" ry="12.5" style="stroke:#181818;stroke-width:0.5;" width="50" x="268.93" y="184.375"/><line style="stroke:#181818;stroke-width:0.5;" x1="268.93" x2="318.93" y1="210.8633" y2="210.8633"/><text fill="#000000" font-family="sans-serif" font-size="14" lengthAdjust="spacing" textLength="25.4639" x="281.1981" y="202.9102">Red</text></g><g id="RedOrange"><rect fill="#F1F1F1" height="50" rx="12.5" ry="12.5" style="stroke:#181818;stroke-width:0.5;" width="95.0176" x="155.42" y="326.375"/><line style="stroke:#181818;stroke-width:0.5;" x1="155.42" x2="250.4376" y1="352.8633" y2="352.8633"/><text fill="#000000" font-family="sans-serif" font-size="14" lengthAdjust="spacing" textLength="75.0176" x="165.42" y="344.9102">RedOrange</text></g><g id="Green"><rect fill="#F1F1F1" height="50" rx="12.5" ry="12.5" style="stroke:#181818;stroke-width:0.5;" width="60.1338" x="95.86" y="453.375"/><line style="stroke:#181818;stroke-width:0.5;" x1="95.86" x2="155.9938" y1="479.8633" y2="479.8633"/><text fill="#000000" font-family="sans-serif" font-size="14" lengthAdjust="spacing" textLength="40.1338" x="105.86" y="471.9102">Green</text></g><g id="Orange"><rect fill="#F1F1F1" height="50" rx="12.5" ry="12.5" style="stroke:#181818;stroke-width:0.5;" width="69.5537" x="178.15" y="580.375"/><line style="stroke:#181818;stroke-width:0.5;" x1="178.15" x2="247.7037" y1="606.8633" y2="606.8633"/><text fill="#000000" font-family="sans-serif" font-size="14" lengthAdjust="spacing" textLength="49.5537" x="188.15" y="598.9102">Orange</text></g><!--link *start* to Red--><g class="link" data-entity-1="*start*" data-entity-2="Red" data-source-line="16" data-uid="lnk4" id="link_*start*_Red"><path d="M293.93,123.735 C293.93,137.665 293.93,158.325 293.93,178.025" fill="none" id="*start*-to-Red" style="stroke:#181818;stroke-width:1;"/><polygon fill="#181818" points="293.93,184.025,297.93,175.025,293.93,179.025,289.93,175.025,293.93,184.025" style="stroke:#181818;stroke-width:1;"/></g><!--link Red to RedOrange--><g class="link" data-entity-1="Red" data-entity-2="RedOrange" data-source-line="18" data-uid="lnk6" id="link_Red_RedOrange"><path d="M269.18,234.685 C260.88,243.575 251.96,254.005 244.93,264.375 C231.69,283.905 222.5772,302.7174 214.9772,320.5074" fill="none" id="Red-to-RedOrange" style="stroke:#181818;stroke-width:1;"/><polygon fill="#181818" points="212.62,326.025,219.8341,319.32,214.5843,321.427,212.4773,316.1772,212.62,326.025" style="stroke:#181818;stroke-width:1;"/><text fill="#000000" font-family="sans-serif" font-size="13" lengthAdjust="spacing" textLength="80.082" x="254.493" y="277.9434">Car detected</text><text fill="#000000" font-family="sans-serif" font-size="13" lengthAdjust="spacing" textLength="97.208" x="245.93" y="293.2539">Waited &#8805; 2 min</text></g><!--link RedOrange to Green--><g class="link" data-entity-1="RedOrange" data-entity-2="Green" data-source-line="19" data-uid="lnk8" id="link_RedOrange_Green"><path d="M187.9,376.775 C174.33,398.795 157.6282,425.9273 144.0682,447.9273" fill="none" id="RedOrange-to-Green" style="stroke:#181818;stroke-width:1;"/><polygon fill="#181818" points="140.92,453.035,149.0475,447.4722,143.5435,448.7786,142.2372,443.2746,140.92,453.035" style="stroke:#181818;stroke-width:1;"/><text fill="#000000" font-family="sans-serif" font-size="13" lengthAdjust="spacing" textLength="68.1484" x="170.04" y="419.9434">After 3 sec</text></g><!--link Green to Green--><g class="link" data-entity-1="Green" data-entity-2="Green" data-source-line="22" data-uid="lnk9" id="link_Green_Green"><path d="M156.38,467.165 C174.26,464.775 191,468.515 191,478.375 C191,488.235 180.2071,492.7699 162.3271,490.3799" fill="none" id="Green-to-Green" style="stroke:#181818;stroke-width:1;"/><polygon fill="#181818" points="156.38,489.585,164.7707,494.7422,161.3359,490.2475,165.8306,486.8127,156.38,489.585" style="stroke:#181818;stroke-width:1;"/><text fill="#000000" font-family="sans-serif" font-size="13" lengthAdjust="spacing" textLength="131.4028" x="197" y="475.9434">Car crosses stop line</text><text fill="#000000" font-family="sans-serif" font-size="13" lengthAdjust="spacing" textLength="115.5781" x="204.9124" y="491.2539">Extend green time</text></g><!--link Green to Orange--><g class="link" data-entity-1="Green" data-entity-2="Orange" data-source-line="25" data-uid="lnk11" id="link_Green_Orange"><path d="M95.46,487.555 C59.15,498.835 6,521.125 27.93,550.375 C45.89,574.335 123.2597,590.2105 171.7397,598.1905" fill="none" id="Green-to-Orange" style="stroke:#181818;stroke-width:1;"/><polygon fill="#181818" points="177.66,599.165,169.4292,593.7563,172.7264,598.3529,168.1298,601.6501,177.66,599.165" style="stroke:#181818;stroke-width:1;"/><text fill="#000000" font-family="sans-serif" font-size="13" lengthAdjust="spacing" textLength="140.7339" x="28.93" y="546.9434">Gap detected in traffic</text></g><!--link Green to Orange--><g class="link" data-entity-1="Green" data-entity-2="Orange" data-source-line="26" data-uid="lnk12" id="link_Green_Orange"><path d="M149.62,503.675 C157.79,512.645 166.7,523.125 173.93,533.375 C184.31,548.085 191.3418,560.486 198.4918,574.556" fill="none" id="Green-to-Orange-1" style="stroke:#181818;stroke-width:1;"/><polygon fill="#181818" points="201.21,579.905,200.6987,570.0694,198.9448,575.4475,193.5667,573.6937,201.21,579.905" style="stroke:#181818;stroke-width:1;"/><text fill="#000000" font-family="sans-serif" font-size="13" lengthAdjust="spacing" textLength="132.6724" x="185.8" y="546.9434">Green active &#8805; 2 min</text></g><!--link Orange to Red--><g class="link" data-entity-1="Orange" data-entity-2="Red" data-source-line="28" data-uid="lnk13" id="link_Orange_Red"><path d="M248.09,596.925 C273.96,589.545 307.81,575.595 326.93,550.375 C403.91,448.795 396.7,382.125 347.93,264.375 C341.99,250.045 334.7783,241.4131 323.7283,232.0531" fill="none" id="Orange-to-Red" style="stroke:#181818;stroke-width:1;"/><polygon fill="#181818" points="319.15,228.175,323.432,237.0443,322.9652,231.4067,328.6028,230.9399,319.15,228.175" style="stroke:#181818;stroke-width:1;"/><text fill="#000000" font-family="sans-serif" font-size="13" lengthAdjust="spacing" textLength="68.1484" x="385.73" y="419.9434">After 3 sec</text></g><!--SRC=[RL7BJiCm4BpxA-Q6XDHAj9nwGAegb1weaAfA72Y7RRn9LYHsi3VbyGTy23_6b-2q1OB4nUjTp-pih5MqPcm25ONak96oKYoyq-1hKp5P3YOBlcknucR78SxCnHZpMh2a6CcPISfsjgknfZTvCjCnLbr5JKCMyy2ymx9BE77cChrGrVZE8lELOsaCEtkICFVd3nYDhh1cQqmwlfFRGAvapB2W0ClAkRBTkZkI5F7v_e49cjJz5zeJiwJi4cbUA0TC4JatvknKZagl4UNXBWLo2X6Fp2qe1DcBAyqHDspKg-V1nyWnyNsBMXnltVMB9W-dNYeDzogRPmyhHS61dKBJL55Kl8jGZ-EG0uKVWncrFmOXhYVsN_8lz52YN6NFWnsOmGRw5Vxr_mK0]--></g></svg>