<svg xmlns="http://www.w3.org/2000/svg" xmlns:xlink="http://www.w3.org/1999/xlink" contentStyleType="text/css" data-diagram-type="ACTIVITY" height="684px" preserveAspectRatio="none" style="width:610px;height:684px;background:#FFFFFF;" version="1.1" viewBox="0 0 610 684" width="610px" zoomAndPan="magnify"><defs/><g><text fill="#888888" font-family="sans-serif" font-size="10" lengthAdjust="spacing" textLength="80.8643" x="517.0476" y="19.668">Group Members:</text><text fill="#888888" font-family="sans-serif" font-size="10" lengthAdjust="spacing" textLength="63.291" x="534.6208" y="31.4453">1. Ali Hassan</text><text fill="#888888" font-family="sans-serif" font-size="10" lengthAdjust="spacing" textLength="71.1621" x="526.7498" y="43.2227">2. Abdul Raziq</text><text fill="#888888" font-family="sans-serif" font-size="10" lengthAdjust="spacing" textLength="142.8125" x="455.0994" y="55">3. Muhammad Areeb Hussain</text><text fill="#888888" font-family="sans-serif" font-size="10" lengthAdjust="spacing" textLength="107.7148" x="490.197" y="66.7773">4. Mahmoud Gohneim</text><ellipse cx="257.9711" cy="79.8867" fill="#222222" rx="10" ry="10" style="stroke:#222222;stroke-width:1;"/><rect fill="#F1F1F1" height="34.1328" rx="12.5" ry="12.5" style="stroke:#181818;stroke-width:0.5;" width="90.916" x="212.5131" y="109.8867"/><text fill="#000000" font-family="sans-serif" font-size="12" lengthAdjust="spacing" textLength="70.916" x="222.5131" y="131.4883">Login to LSF</text><rect fill="#F1F1F1" height="34.1328" rx="12.5" ry="12.5" style="stroke:#181818;stroke-width:0.5;" width="177.0137" x="169.4642" y="164.0195"/><text fill="#000000" font-family="sans-serif" font-size="12" lengthAdjust="spacing" textLength="157.0137" x="179.4642" y="185.6211">Search for suitable courses</text><rect fill="#F1F1F1" height="34.1328" rx="12.5" ry="12.5" style="stroke:#181818;stroke-width:0.5;" width="133.8301" x="191.056" y="218.1523"/><text fill="#000000" font-family="sans-serif" font-size="12" lengthAdjust="spacing" textLength="113.8301" x="201.056" y="239.7539">Check course times</text><polygon fill="#F1F1F1" points="218.2115,272.2852,297.7306,272.2852,309.7306,284.2852,297.7306,296.2852,218.2115,296.2852,206.2115,284.2852,218.2115,272.2852" style="stroke:#181818;stroke-width:0.5;"/><text fill="#000000" font-family="sans-serif" font-size="11" lengthAdjust="spacing" textLength="79.519" x="218.2115" y="288.4424">Times overlap?</text><text fill="#000000" font-family="sans-serif" font-size="11" lengthAdjust="spacing" textLength="17.4829" x="188.7286" y="281.9648">yes</text><text fill="#000000" font-family="sans-serif" font-size="11" lengthAdjust="spacing" textLength="13.5835" x="309.7306" y="281.9648">no</text><rect fill="#F1F1F1" height="34.1328" rx="12.5" ry="12.5" style="stroke:#181818;stroke-width:0.5;" width="106.2852" x="49.9358" y="306.2852"/><text fill="#000000" font-family="sans-serif" font-size="12" lengthAdjust="spacing" textLength="86.2852" x="59.9358" y="327.8867">Discard course</text><rect fill="#F1F1F1" height="34.1328" rx="12.5" ry="12.5" style="stroke:#181818;stroke-width:0.5;" width="99.2305" x="53.4631" y="419.418"/><text fill="#000000" font-family="sans-serif" font-size="12" lengthAdjust="spacing" textLength="79.2305" x="63.4631" y="441.0195">Logout of LSF</text><ellipse cx="103.0784" cy="488.5508" fill="none" rx="11" ry="11" style="stroke:#222222;stroke-width:1;"/><ellipse cx="103.0784" cy="488.5508" fill="#222222" rx="6" ry="6" style="stroke:#222222;stroke-width:1;"/><polygon fill="#F1F1F1" points="32,375.418,174.1567,375.418,186.1567,387.418,174.1567,399.418,32,399.418,20,387.418,32,375.418" style="stroke:#181818;stroke-width:0.5;"/><text fill="#000000" font-family="sans-serif" font-size="11" lengthAdjust="spacing" textLength="142.1567" x="32" y="391.5752">Search for another course?</text><text fill="#000000" font-family="sans-serif" font-size="11" lengthAdjust="spacing" textLength="17.4829" x="186.1567" y="385.0977">yes</text><rect fill="#555555" height="6" rx="2.5" ry="2.5" style="stroke:#555555;stroke-width:1;" width="381.7551" x="218.1567" y="306.2852"/><rect fill="#F1F1F1" height="34.1328" rx="12.5" ry="12.5" style="stroke:#181818;stroke-width:0.5;" width="122.1523" x="232.1567" y="332.2852"/><text fill="#000000" font-family="sans-serif" font-size="12" lengthAdjust="spacing" textLength="102.1523" x="242.1567" y="353.8867">Enter course time</text><rect fill="#F1F1F1" height="34.1328" rx="12.5" ry="12.5" style="stroke:#181818;stroke-width:0.5;" width="98.5742" x="382.3091" y="332.2852"/><text fill="#000000" font-family="sans-serif" font-size="12" lengthAdjust="spacing" textLength="78.5742" x="392.3091" y="353.8867">Enter lecturer</text><rect fill="#F1F1F1" height="34.1328" rx="12.5" ry="12.5" style="stroke:#181818;stroke-width:0.5;" width="84.6875" x="503.2244" y="332.2852"/><text fill="#000000" font-family="sans-serif" font-size="12" lengthAdjust="spacing" textLength="64.6875" x="513.2244" y="353.8867">Enter room</text><rect fill="#555555" height="6" rx="2.5" ry="2.5" style="stroke:#555555;stroke-width:1;" width="381.7551" x="218.1567" y="386.418"/><rect fill="#F1F1F1" height="34.1328" rx="12.5" ry="12.5" style="stroke:#181818;stroke-width:0.5;" width="159.8926" x="332.9175" y="423.418"/><text fill="#000000" font-family="sans-serif" font-size="12" lengthAdjust="spacing" textLength="139.8926" x="342.9175" y="445.0195">Check current timetable</text><rect fill="#F1F1F1" height="34.1328" rx="12.5" ry="12.5" style="stroke:#181818;stroke-width:0.5;" width="99.2305" x="363.2485" y="529.5508"/><text fill="#000000" font-family="sans-serif" font-size="12" lengthAdjust="spacing" textLength="79.2305" x="373.2485" y="551.1523">Logout of LSF</text><ellipse cx="412.8638" cy="609.6836" fill="none" rx="11" ry="11" style="stroke:#222222;stroke-width:1;"/><ellipse cx="412.8638" cy="609.6836" fill="#222222" rx="6" ry="6" style="stroke:#222222;stroke-width:1;"/><polygon fill="#F1F1F1" points="361.9861,481.5508,463.7415,481.5508,475.7415,493.5508,463.7415,505.5508,361.9861,505.5508,349.9861,493.5508,361.9861,481.5508" style="stroke:#181818;stroke-width:0.5;"/><text fill="#000000" font-family="sans-serif" font-size="11" lengthAdjust="spacing" textLength="101.7554" x="361.9861" y="497.708">Add more courses?</text><text fill="#000000" font-family="sans-serif" font-size="11" lengthAdjust="spacing" textLength="17.4829" x="475.7415" y="491.2305">yes</text><polygon fill="#F1F1F1" points="257.9711,648.6836,269.9711,660.6836,257.9711,672.6836,245.9711,660.6836,257.9711,648.6836" style="stroke:#181818;stroke-width:0.5;"/><line style="stroke:#181818;stroke-width:1;" x1="257.9711" x2="257.9711" y1="89.8867" y2="109.8867"/><polygon fill="#181818" points="253.9711,99.8867,257.9711,109.8867,261.9711,99.8867,257.9711,103.8867" style="stroke:#181818;stroke-width:1;"/><line style="stroke:#181818;stroke-width:1;" x1="257.9711" x2="257.9711" y1="144.0195" y2="164.0195"/><polygon fill="#181818" points="253.9711,154.0195,257.9711,164.0195,261.9711,154.0195,257.9711,158.0195" style="stroke:#181818;stroke-width:1;"/><line style="stroke:#181818;stroke-width:1;" x1="257.9711" x2="257.9711" y1="198.1523" y2="218.1523"/><polygon fill="#181818" points="253.9711,208.1523,257.9711,218.1523,261.9711,208.1523,257.9711,212.1523" style="stroke:#181818;stroke-width:1;"/><line style="stroke:#181818;stroke-width:1;" x1="103.0784" x2="103.0784" y1="453.5508" y2="477.5508"/><polygon fill="#181818" points="99.0784,467.5508,103.0784,477.5508,107.0784,467.5508,103.0784,471.5508" style="stroke:#181818;stroke-width:1;"/><line style="stroke:#181818;stroke-width:1;" x1="103.0784" x2="103.0784" y1="399.418" y2="419.418"/><polygon fill="#181818" points="99.0784,409.418,103.0784,419.418,107.0784,409.418,103.0784,413.418" style="stroke:#181818;stroke-width:1;"/><line style="stroke:#181818;stroke-width:1;" x1="186.1567" x2="198.1567" y1="387.418" y2="387.418"/><polygon fill="#181818" points="194.1567,510.5508,198.1567,520.5508,202.1567,510.5508,198.1567,514.5508" style="stroke:#181818;stroke-width:1;"/><line style="stroke:#181818;stroke-width:1;" x1="198.1567" x2="198.1567" y1="387.418" y2="660.6836"/><line style="stroke:#181818;stroke-width:1;" x1="198.1567" x2="245.9711" y1="660.6836" y2="660.6836"/><polygon fill="#181818" points="235.9711,656.6836,245.9711,660.6836,235.9711,664.6836,239.9711,660.6836" style="stroke:#181818;stroke-width:1;"/><line style="stroke:#181818;stroke-width:1;" x1="103.0784" x2="103.0784" y1="340.418" y2="375.418"/><polygon fill="#181818" points="99.0784,365.418,103.0784,375.418,107.0784,365.418,103.0784,369.418" style="stroke:#181818;stroke-width:1;"/><line style="stroke:#181818;stroke-width:1;" x1="293.2329" x2="293.2329" y1="312.2852" y2="332.2852"/><polygon fill="#181818" points="289.2329,322.2852,293.2329,332.2852,297.2329,322.2852,293.2329,326.2852" style="stroke:#181818;stroke-width:1;"/><line style="stroke:#181818;stroke-width:1;" x1="431.5962" x2="431.5962" y1="312.2852" y2="332.2852"/><polygon fill="#181818" points="427.5962,322.2852,431.5962,332.2852,435.5962,322.2852,431.5962,326.2852" style="stroke:#181818;stroke-width:1;"/><line style="stroke:#181818;stroke-width:1;" x1="545.5681" x2="545.5681" y1="312.2852" y2="332.2852"/><polygon fill="#181818" points="541.5681,322.2852,545.5681,332.2852,549.5681,322.2852,545.5681,326.2852" style="stroke:#181818;stroke-width:1;"/><line style="stroke:#181818;stroke-width:1;" x1="293.2329" x2="293.2329" y1="366.418" y2="386.418"/><polygon fill="#181818" points="289.2329,376.418,293.2329,386.418,297.2329,376.418,293.2329,380.418" style="stroke:#181818;stroke-width:1;"/><line style="stroke:#181818;stroke-width:1;" x1="431.5962" x2="431.5962" y1="366.418" y2="386.418"/><polygon fill="#181818" points="427.5962,376.418,431.5962,386.418,435.5962,376.418,431.5962,380.418" style="stroke:#181818;stroke-width:1;"/><line style="stroke:#181818;stroke-width:1;" x1="545.5681" x2="545.5681" y1="366.418" y2="386.418"/><polygon fill="#181818" points="541.5681,376.418,545.5681,386.418,549.5681,376.418,545.5681,380.418" style="stroke:#181818;stroke-width:1;"/><line style="stroke:#181818;stroke-width:1;" x1="412.8638" x2="412.8638" y1="392.418" y2="423.418"/><polygon fill="#181818" points="408.8638,413.418,412.8638,423.418,416.8638,413.418,412.8638,417.418" style="stroke:#181818;stroke-width:1;"/><line style="stroke:#181818;stroke-width:1;" x1="412.8638" x2="412.8638" y1="563.6836" y2="598.6836"/><polygon fill="#181818" points="408.8638,588.6836,412.8638,598.6836,416.8638,588.6836,412.8638,592.6836" style="stroke:#181818;stroke-width:1;"/><line style="stroke:#181818;stroke-width:1;" x1="412.8638" x2="412.8638" y1="505.5508" y2="529.5508"/><polygon fill="#181818" points="408.8638,519.5508,412.8638,529.5508,416.8638,519.5508,412.8638,523.5508" style="stroke:#181818;stroke-width:1;"/><line style="stroke:#181818;stroke-width:1;" x1="475.7415" x2="487.7415" y1="493.5508" y2="493.5508"/><polygon fill="#181818" points="483.7415,571.1172,487.7415,581.1172,491.7415,571.1172,487.7415,575.1172" style="stroke:#181818;stroke-width:1;"/><line style="stroke:#181818;stroke-width:1;" x1="487.7415" x2="487.7415" y1="493.5508" y2="660.6836"/><line style="stroke:#181818;stroke-width:1;" x1="487.7415" x2="269.9711" y1="660.6836" y2="660.6836"/><polygon fill="#181818" points="279.9711,656.6836,269.9711,660.6836,279.9711,664.6836,275.9711,660.6836" style="stroke:#181818;stroke-width:1;"/><line style="stroke:#181818;stroke-width:1;" x1="412.8638" x2="412.8638" y1="457.5508" y2="481.5508"/><polygon fill="#181818" points="408.8638,471.5508,412.8638,481.5508,416.8638,471.5508,412.8638,475.5508" style="stroke:#181818;stroke-width:1;"/><line style="stroke:#181818;stroke-width:1;" x1="206.2115" x2="103.0784" y1="284.2852" y2="284.2852"/><line style="stroke:#181818;stroke-width:1;" x1="103.0784" x2="103.0784" y1="284.2852" y2="306.2852"/><polygon fill="#181818" points="99.0784,296.2852,103.0784,306.2852,107.0784,296.2852,103.0784,300.2852" style="stroke:#181818;stroke-width:1;"/><line style="stroke:#181818;stroke-width:1;" x1="309.7306" x2="412.8638" y1="284.2852" y2="284.2852"/><line style="stroke:#181818;stroke-width:1;" x1="412.8638" x2="412.8638" y1="284.2852" y2="306.2852"/><polygon fill="#181818" points="408.8638,296.2852,412.8638,306.2852,416.8638,296.2852,412.8638,300.2852" style="stroke:#181818;stroke-width:1;"/><line style="stroke:#181818;stroke-width:1;" x1="257.9711" x2="257.9711" y1="252.2852" y2="272.2852"/><polygon fill="#181818" points="253.9711,262.2852,257.9711,272.2852,261.9711,262.2852,257.9711,266.2852" style="stroke:#181818;stroke-width:1;"/><!--SRC=[jL2xRiCm3Dpr5JScGmFqCTb0Yw2FP4YMfZyWMtGin19TIYhGVdqjsmY20ktMHH39EnxlGjGIbMf96nAr4KuzzkGgab2ewnNMdSLMXw2zkXcgogGEh_hBlglR5VQfrSvfWxKGLTYc0MUzkXickdMS33RSUh9EaJUpX2fsVBGUaR4xl9IgE92MkaN3Wf1ir5L7g3b9e31C7rkgJtEDQ5rkAjjWyPR_u0-IJlSFIyIMF1QV59OAA9vigBMOcLWEhSovaDAU1uRCW9zyuEeUVnu6K1TeX6P3d2AucHpbNeZSPumtjb4PYONdl7dOTffOppwUzKTdvJo6FkOKBq0TrJ49oUy8ONRb93X9v13cx988-JXAZ2PADSUnDWQEvUpgdrCOtsy0]--></g></svg>